v -6.553510 -0.447034 -0.052167
v -5.388065 -0.402852 -0.723587
v -5.388065 -0.402852 -0.723587
v -6.060939 -0.479375 0.439341
v -5.388065 -0.402852 -0.723587
v -4.715191 -0.479375 0.439341
v -5.388065 -0.402852 -0.723587
v -4.222620 -0.447034 -0.052167
v -5.388065 -0.402852 -0.723587
v -4.222620 -0.358673 -1.395011
v -4.715191 -0.326333 -1.886518
v -5.388065 -0.402852 -0.723587
v -6.060939 -0.326333 -1.886518
v -5.388065 -0.402852 -0.723587
v -6.553510 -0.358673 -1.395011
v -5.388065 -0.402852 -0.723587
v -6.060939 -0.479375 0.439341
v -6.553510 -0.447034 -0.052167
v -6.553510 -0.044179 -0.025657
v -6.060939 -0.076522 0.465850
v -4.222620 -0.044179 -0.025657
v -4.222620 0.044179 -1.368504
v -4.715191 -0.326333 -1.886518
v -4.222620 -0.358673 -1.395011
v -4.222620 0.044179 -1.368504
v -4.715191 0.076522 -1.860011
v -4.713388 0.447151 -1.343794
v -6.062743 0.447151 -1.343794
v -6.062743 0.076522 -1.860011
v -4.713388 0.076522 -1.860011
v -6.553510 -0.358673 -1.395011
v -6.060939 -0.326333 -1.886518
v -6.060939 0.076522 -1.860011
v -6.553510 0.044179 -1.368504
v -4.715191 -0.076522 0.465850
v -4.715191 0.377229 -0.281149
v -4.715191 0.428478 -1.059999
v -4.715191 0.447238 -1.345084
v -4.715191 0.358470 0.003939
v -4.715191 0.358470 0.003939
v -4.715191 0.076522 -1.860011
v -6.060939 0.447238 -1.345084
v -6.060939 0.447238 -1.345084
v -6.060939 0.358470 0.003939
v -6.060939 0.358470 0.003939
v -6.060939 0.428478 -1.059999
v -6.060939 0.377229 -0.281149
v -6.062743 0.358556 0.002650
v -5.388065 0.402852 -0.670574
v -4.713388 0.358556 0.002650
v -4.222620 -0.044179 -0.025657
v -6.062743 -0.076522 0.465850
v -4.713388 -0.076522 0.465850
v -4.713388 -0.479375 0.439341
v -6.062743 -0.479375 0.439341
v -5.388065 -0.402852 -0.723587
v -5.388065 -0.402852 -0.723587
v -5.388065 -0.402852 -0.723587
v -5.388065 -0.402852 -0.723587
v -5.388065 -0.402852 -0.723587
v -4.222620 -0.447034 -0.052167
v -5.388065 -0.402852 -0.723587
v -5.388065 -0.402852 -0.723587
v -4.715191 -0.479375 0.439341
v -5.388065 -0.402852 -0.723587
v -5.388065 -0.402852 -0.723587
v -5.388065 -0.402852 -0.723587
v -5.388065 0.402852 -0.670574
v -5.388065 0.402852 -0.670574
v -5.388065 0.402852 -0.670574
v -6.062743 -0.326333 -1.886518
v -4.713388 -0.326333 -1.886518
v -6.553510 -0.447034 -0.052167
v -5.388065 -0.402852 -0.723587
v -5.388065 -0.402852 -0.723587
v -6.060939 -0.479375 0.439341
v -5.388065 -0.402852 -0.723587
v -4.715191 -0.479375 0.439341
v -5.388065 -0.402852 -0.723587
v -4.222620 -0.447034 -0.052167
v -5.388065 -0.402852 -0.723587
v -5.388065 -0.402852 -0.723587
v -4.715191 -0.326333 -1.886518
v -5.388065 -0.402852 -0.723587
v -6.060939 -0.326333 -1.886518
v -5.388065 -0.402852 -0.723587
v -6.553510 -0.358673 -1.395011
v -4.715191 0.358470 0.003939
v -4.715191 0.358470 0.003939
v -4.715191 -0.076522 0.465850
v -6.060939 0.076522 -1.860011
v -6.060939 0.447238 -1.345084
v -6.060939 0.447238 -1.345084
v -6.060939 0.358470 0.003939
v -6.060939 0.358470 0.003939
v -6.060939 -0.076522 0.465850
v -5.388065 -0.402852 -0.723587
v -5.388065 -0.402852 -0.723587
v -6.060939 -0.326333 -1.886518
v -5.388065 -0.402852 -0.723587
v -4.715191 -0.326333 -1.886518
v -5.388065 -0.402852 -0.723587
v -4.222620 -0.358673 -1.395011
v -5.388065 -0.402852 -0.723587
v -4.222620 -0.447034 -0.052167
v -5.388065 -0.402852 -0.723587
v -4.715191 -0.479375 0.439341
v -5.388065 -0.402852 -0.723587
v -6.060939 -0.479375 0.439341
v -5.388065 -0.402852 -0.723587
v -6.553510 -0.447034 -0.052167
v -6.062743 -0.479375 0.439341
v -5.388065 -0.402852 -0.723587
v -5.388065 -0.402852 -0.723587
v -6.062743 0.358556 0.002650
v -6.062743 -0.076522 0.465850
v -4.713388 -0.076522 0.465850
v -5.388065 0.402852 -0.670574
v -5.388065 0.402852 -0.670574
v -4.713388 0.358556 0.002650
v -5.388065 0.402852 -0.670574
v -4.713388 0.447151 -1.343794
v -5.388065 0.402852 -0.670574
v -6.062743 0.447151 -1.343794
v -6.060939 0.428478 -1.059999
v -6.060939 0.377229 -0.281149
v -4.715191 0.447238 -1.345084
v -4.715191 0.447238 -1.345084
v -4.715191 0.447238 -1.345084
v -4.713388 -0.479375 0.439341
v -4.715191 -0.076522 0.465850
v -4.715191 -0.076522 0.465850
v -4.222620 -0.044179 -0.025657
v -6.062743 -0.326333 -1.886518
v -4.713388 -0.326333 -1.886518
v -4.222620 0.044179 -1.368504
v -4.222620 -0.358673 -1.395011
v -6.062743 0.076522 -1.860011
v -5.388065 -0.402852 -0.723587
v -5.388065 -0.402852 -0.723587
v -4.222620 0.044179 -1.368504
v -4.715191 0.076522 -1.860011
v -4.715191 0.377229 -0.281149
v -5.388065 -0.402852 -0.723587
v -5.388065 -0.402852 -0.723587
v -4.715191 0.076522 -1.860011
v -4.713388 0.076522 -1.860011
v -6.553510 -0.044179 -0.025657
v -6.553510 0.044179 -1.368504
v -6.553510 0.044179 -1.368504
v -6.553510 -0.044179 -0.025657
v -6.060939 0.076522 -1.860011
v -6.060939 0.076522 -1.860011
v -4.715191 0.428478 -1.059999
vt 0.000000 0.000000
vt 0.000000 0.000000
vt 0.000000 0.000000
vt 0.736124 0.258454
vt 0.802497 0.000000
vt 0.868870 0.258454
vt 0.000000 0.000000
vt 0.000000 0.000000
vt 0.000000 0.000000
vt 0.000000 0.000000
vt 0.735677 0.989651
vt 0.802050 0.731197
vt 0.868423 0.989651
vt 0.000000 0.000000
vt 0.000000 0.000000
vt 0.385363 0.035847
vt 0.513586 0.267571
vt 0.257137 0.267571
vt 0.513586 0.000000
vt 0.000000 0.000000
vt 0.000000 0.000000
vt 0.735677 0.267751
vt 0.735677 0.535323
vt 0.513586 0.401537
vt 0.000000 0.000000
vt 0.000000 0.000000
vt 0.000000 0.000000
vt 0.000000 0.000000
vt 0.479228 0.535142
vt 0.479228 0.802715
vt 0.257137 0.668929
vt 0.667456 0.535323
vt 0.667456 0.673827
vt 0.590521 0.673827
vt 0.590521 0.535323
vt 0.829543 0.535323
vt 0.906478 0.267751
vt 0.906478 0.535323
vt 0.829543 0.267751
vt 0.128569 0.999667
vt 0.128569 0.901730
vt 0.205504 0.901730
vt 0.205504 0.999667
vt 0.128569 0.634157
vt 0.128569 0.365868
vt 0.222091 0.365868
vt 0.222091 0.634157
vt 0.389884 0.963258
vt 0.257137 0.963258
vt 0.257137 0.882986
vt 0.389884 0.882987
vt 0.829543 0.633260
vt 0.906478 0.633260
vt 0.829543 0.421878
vt 0.829543 0.577070
vt 0.829543 0.633875
vt 0.735677 0.633260
vt 0.735677 0.365687
vt 0.829543 0.365072
vt 0.000000 0.000000
vt 0.000000 0.000000
vt 0.000000 0.000000
vt 0.829543 0.267751
vt 0.829543 0.731197
vt 0.323093 0.802715
vt 0.000000 0.000000
vt 0.000000 0.000000
vt 0.000000 0.000000
vt 0.000000 0.000000
vt 0.000000 0.000000
vt 0.000000 0.000000
vt 0.513586 0.604140
vt 0.962289 1.000000
vt 0.868423 0.999385
vt 0.868423 0.731812
vt 0.962289 0.731197
vt 0.962289 0.788002
vt 0.962289 0.943194
vt 0.000000 0.268289
vt 0.000000 0.000000
vt 0.128569 0.134145
vt 0.257137 0.268289
vt 0.205504 0.634157
vt 0.466819 0.802715
vt 0.466819 0.992424
vt 0.389884 0.992424
vt 0.389884 0.802715
vt 0.000000 0.000000
vt 0.000000 0.000000
vt 0.000000 0.000000
vt 0.000000 0.000000
vt 0.000000 0.000000
vt 0.000000 0.000000
vt 0.000000 0.000000
vt 0.000000 0.000000
vt 0.000000 0.000000
vt 0.000000 0.000000
vt 0.000000 0.000000
vt 0.000000 0.000000
vt 0.000000 0.000000
vt 0.000000 0.000000
vt 0.000000 0.000000
vt 0.000000 0.000000
vt 0.000000 0.000000
vt 0.000000 0.000000
vt 0.513586 0.133336
vt 0.736124 0.000000
vt 0.736124 0.267751
vt 0.385363 0.499295
vt 0.257137 0.267571
vt 0.513586 0.267571
vt 0.513586 0.535142
vt 0.257137 0.365868
vt 0.000000 0.365868
vt 0.667456 0.863029
vt 0.590521 0.863029
vt 0.000000 0.000000
vt 0.000000 0.000000
vt 0.000000 0.000000
vt 0.000000 0.768302
vt 0.128569 0.902447
vt 0.000000 0.000000
vt 0.000000 0.000000
vt 0.000000 0.000000
vt 0.000000 0.500013
vt 0.868870 0.189709
vt 0.868870 0.000000
vt 0.945805 0.000000
vt 0.945805 0.189709
vt 0.000000 0.000000
vt 0.000000 0.000000
vt 0.000000 0.000000
vt 0.000000 0.000000
vt 0.000000 0.000000
vt 0.000000 0.000000
vt 0.000000 0.000000
vt 0.000000 0.000000
vt 0.000000 0.000000
vt 0.000000 0.000000
vt 0.000000 0.000000
vt 0.000000 0.000000
vt 0.000000 0.000000
vt 0.000000 0.000000
vt 0.000000 0.000000
vt 0.000000 0.000000
vt 0.000000 0.000000
vt 0.000000 0.000000
vt 0.000000 0.000000
vt 0.000000 0.000000
vt 0.000000 0.000000
vt 0.000000 0.000000
vt 0.000000 0.000000
vt 0.000000 0.000000
vt 0.000000 0.000000
vt 0.000000 0.000000
vt 0.000000 0.000000
vt 0.000000 0.000000
vt 0.000000 0.000000
vt 0.000000 0.000000
vt 0.000000 0.000000
vt 0.000000 0.000000
vt 0.000000 0.000000
vt 0.000000 0.000000
vt 0.000000 0.000000
vt 0.000000 0.000000
vt 0.000000 0.000000
vt 0.000000 0.000000
vt 0.000000 0.000000
vt 0.000000 0.000000
vt 0.000000 0.000000
vt 0.000000 0.000000
vt 1.000000 0.536040
vt 0.906478 0.536040
vt 0.906478 0.267751
vt 0.000000 0.000000
vt 0.000000 0.000000
vt 0.000000 0.000000
vt 0.000000 0.000000
vt 0.000000 0.000000
vt 0.000000 0.000000
vt 0.000000 0.000000
vt 0.000000 0.000000
vt 0.000000 0.000000
vt 0.000000 0.000000
vt 0.000000 0.000000
vt 0.000000 0.000000
vt 0.000000 0.000000
vt 0.000000 0.000000
vt 0.000000 0.000000
vt 0.000000 0.000000
vt 0.000000 0.000000
vt 0.000000 0.000000
vt 0.000000 0.000000
vt 0.000000 0.000000
vt 0.000000 0.000000
vt 0.000000 0.000000
vt 0.000000 0.000000
vt 0.000000 0.000000
vt 0.000000 0.000000
vt 0.000000 0.000000
vt 0.000000 0.000000
vt 0.000000 0.000000
vt 0.000000 0.000000
vt 0.000000 0.000000
vt 0.000000 0.000000
vt 0.000000 0.000000
vt 0.000000 0.000000
vt 0.000000 0.000000
vt 0.000000 0.000000
vt 0.000000 0.000000
vt 0.000000 0.000000
vt 0.000000 0.000000
vt 0.000000 0.000000
vt 0.000000 0.000000
vt 0.000000 0.000000
vt 0.000000 0.000000
vt 0.000000 0.000000
vt 0.000000 0.000000
vt 0.000000 0.000000
vt 0.000000 0.000000
vt 0.000000 0.000000
vt 0.000000 0.000000
vt 0.000000 0.000000
vt 0.000000 0.000000
vt 0.000000 0.000000
vt 0.000000 0.000000
vt 0.000000 0.000000
vt 0.000000 0.000000
vt 0.000000 0.000000
vt 0.000000 0.000000
vt 0.000000 0.000000
vt 0.000000 0.000000
vt 0.000000 0.000000
vn -0.0214 0.9866 -0.1616
vn 0.0000 0.0000 1.0000
vn -0.0000 0.9978 0.0657
vn 0.7071 0.0464 -0.7056
vn -1.0000 0.0000 0.0000
vn -0.7071 -0.0464 0.7056
vn 0.0000 -0.8123 0.5832
vn 0.7071 -0.0464 0.7056
vn -0.7071 0.0464 -0.7056
vn -0.6339 -0.7717 -0.0508
vn -0.5368 -0.6142 -0.5784
vn -0.5368 -0.6847 0.4929
vn 0.5368 -0.6847 0.4929
vn 0.5368 -0.6142 -0.5784
vn 0.6339 -0.7717 -0.0508
vn -0.0000 -0.9978 -0.0657
vn 0.0000 0.0657 -0.9978
vn 0.0000 -0.7289 -0.6846
vn 1.0000 0.0000 0.0000
vn 0.0000 -0.5838 0.8119
vn 0.0000 -0.0657 0.9978
vn 0.0000 0.7289 0.6846
usemtl None.001
s 1
f 1/1/1 2/2/2 3/3/2
f 4/4/3 2/5/3 1/6/3
f 4/7/2 5/8/2 2/2/2
f 6/9/2 7/10/2 5/8/2
f 8/11/3 7/12/3 6/13/3
f 8/14/2 9/15/2 7/10/2
f 10/16/3 9/17/3 8/18/3
f 10/16/3 11/19/3 9/17/3
f 9/15/2 11/20/2 12/21/2
f 11/22/3 13/23/3 12/24/3
f 12/21/2 13/25/2 14/26/2
f 14/26/2 15/27/2 16/28/2
f 15/29/3 1/30/3 16/31/3
f 16/28/2 1/1/1 3/3/2
f 17/32/4 18/33/4 19/34/4 20/35/4
f 21/36/5 10/37/5 8/38/5
f 22/39/5 10/37/5 21/36/5
f 23/40/6 24/41/6 25/42/6 26/43/6
f 27/44/7 28/45/7 29/46/7 30/47/7
f 31/48/8 32/49/8 33/50/8 34/51/8
f 35/52/9 21/36/9 8/38/9 6/53/9
f 36/54/10 37/55/10 38/56/10 22/57/10 21/58/10 39/59/10
f 39/60/2 35/61/2 40/62/2
f 39/59/11 21/58/11 35/63/11
f 22/57/12 38/56/12 41/64/12
f 33/50/13 42/65/13 34/51/13
f 33/66/2 43/67/2 42/68/2
f 44/69/2 20/70/2 45/71/2
f 20/35/14 19/34/14 45/72/14
f 45/73/15 19/74/15 34/75/15 42/76/15 46/77/15 47/78/15
f 48/79/16 28/80/16 49/81/16 50/82/16
f 24/41/5 51/83/5 25/42/5
f 52/84/17 53/85/17 54/86/17 55/87/17
f 56/88/2 32/89/2 57/90/2
f 58/91/2 23/92/2 56/88/2
f 59/93/2 24/94/2 58/91/2
f 60/95/2 61/96/2 59/93/2
f 60/95/2 62/97/2 61/96/2
f 62/97/2 63/98/2 64/99/2
f 63/98/2 65/100/2 17/101/2
f 65/100/2 57/90/2 18/102/2
f 55/103/2 66/104/2 67/105/2
f 54/106/3 66/107/3 55/108/3
f 31/109/3 18/110/3 57/111/3 32/112/3
f 48/79/18 53/113/18 52/114/18
f 50/82/18 53/113/18 48/79/18
f 18/33/19 31/115/19 34/116/19 19/34/19
f 68/117/2 50/118/2 49/119/2
f 68/120/16 27/44/16 50/121/16
f 69/122/2 27/123/20 68/117/2
f 69/122/2 70/124/2 27/123/20
f 27/44/16 70/125/16 28/45/16
f 70/124/2 49/119/2 28/80/2
f 30/126/21 29/127/21 71/128/21 72/129/21
f 73/130/2 74/131/2 75/132/2
f 76/133/2 75/132/2 77/134/2
f 78/135/2 77/134/2 79/136/2
f 80/137/2 79/136/2 81/138/2
f 81/138/2 82/139/2 83/140/2
f 82/139/2 84/141/2 85/142/2
f 84/141/2 86/143/2 87/144/2
f 86/143/2 74/131/2 73/130/2
f 88/145/2 89/146/2 90/147/2
f 91/148/2 92/149/2 93/150/2
f 94/151/2 95/152/2 96/153/2
f 97/154/2 98/155/2 99/156/2
f 100/157/2 97/154/2 101/158/2
f 102/159/2 100/157/2 103/160/2
f 104/161/2 102/159/2 105/162/2
f 104/161/2 105/162/2 106/163/2
f 106/163/2 107/164/2 108/165/2
f 108/165/2 109/166/2 110/167/2
f 110/167/2 111/168/2 98/155/2
f 112/169/2 113/170/2 114/171/2
f 115/172/22 116/173/22 117/174/22
f 118/175/2 119/176/2 120/177/2
f 121/178/2 118/175/2 122/179/2
f 121/178/2 122/179/2 123/180/2
f 123/180/2 124/181/2 119/176/2
f 63/98/2 62/97/2 106/163/2 108/165/2
f 46/182/2 42/68/2 92/149/2 125/183/2
f 2/2/2 5/8/2 77/134/2 75/132/2
f 53/184/2 50/118/2 120/177/2 117/185/2
f 45/71/2 47/186/2 126/187/2 95/152/2
f 38/188/2 127/189/2 128/190/2 129/191/2
f 66/104/2 54/192/2 130/193/2 114/171/2
f 64/99/2 63/98/2 108/165/2 107/164/2
f 20/70/2 131/194/2 132/195/2 96/153/2
f 51/196/2 24/94/2 103/160/2 133/197/2
f 3/3/2 2/2/2 75/132/2 74/131/2
f 60/95/2 59/93/2 102/159/2 104/161/2
f 52/198/2 55/103/2 112/169/2 116/199/2
f 51/196/2 131/194/2 132/195/2 133/197/2
f 72/200/2 71/201/2 134/202/2 135/203/2
f 10/204/2 22/205/2 136/206/2 137/207/2
f 29/208/2 28/80/2 124/181/2 138/209/2
f 59/93/2 58/91/2 100/157/2 102/159/2
f 69/122/2 68/117/2 118/175/2 121/178/2
f 47/186/2 46/182/2 125/183/2 126/187/2
f 16/28/2 3/3/2 74/131/2 86/143/2
f 13/25/2 11/20/2 83/140/2 85/142/2
f 67/105/2 139/210/2 140/211/2 113/170/2
f 54/192/2 53/184/2 117/185/2 130/193/2
f 17/101/2 20/70/2 96/153/2 109/166/2
f 44/69/2 45/71/2 95/152/2 94/151/2
f 1/1/2 15/27/2 87/144/2 73/130/2
f 26/212/2 25/213/2 141/214/2 142/215/2
f 40/62/2 35/61/2 90/147/2 89/146/2
f 36/216/2 39/60/2 88/145/2 143/217/2
f 14/26/2 16/28/2 86/143/2 84/141/2
f 11/20/2 10/204/2 137/207/2 83/140/2
f 6/9/2 4/7/2 76/133/2 78/135/2
f 70/124/2 69/122/2 121/178/2 123/180/2
f 66/104/2 144/218/2 145/219/2 114/171/2
f 35/61/2 6/9/2 78/135/2 90/147/2
f 28/80/2 48/220/2 115/221/2 124/181/2
f 144/218/2 71/201/2 134/202/2 145/219/2
f 14/26/2 13/25/2 85/142/2 84/141/2
f 33/66/2 32/89/2 99/156/2 91/148/2
f 49/119/2 70/124/2 123/180/2 119/176/2
f 15/27/2 14/26/2 84/141/2 87/144/2
f 71/201/2 29/208/2 138/209/2 134/202/2
f 56/88/2 57/90/2 98/155/2 97/154/2
f 65/100/2 63/98/2 108/165/2 110/167/2
f 32/89/2 23/92/2 101/158/2 99/156/2
f 23/92/2 26/212/2 142/215/2 101/158/2
f 48/220/2 52/198/2 116/199/2 115/221/2
f 62/97/2 64/99/2 107/164/2 106/163/2
f 25/213/2 51/196/2 133/197/2 141/214/2
f 62/97/2 60/95/2 104/161/2 106/163/2
f 55/103/2 67/105/2 113/170/2 112/169/2
f 68/117/2 49/119/2 119/176/2 118/175/2
f 41/222/2 38/188/2 129/191/2 146/223/2
f 27/123/2 30/224/2 147/225/2 122/179/2
f 22/205/2 41/222/2 146/223/2 136/206/2
f 4/7/2 1/1/2 73/130/2 76/133/2
f 12/21/2 14/26/2 84/141/2 82/139/2
f 144/218/2 139/210/2 140/211/2 145/219/2
f 148/226/2 149/227/2 150/228/2 151/229/2
f 43/67/2 33/66/2 91/148/2 93/150/2
f 30/224/2 72/200/2 135/203/2 147/225/2
f 42/68/2 43/67/2 93/150/2 92/149/2
f 67/105/2 66/104/2 114/171/2 113/170/2
f 39/60/2 40/62/2 89/146/2 88/145/2
f 58/91/2 56/88/2 97/154/2 100/157/2
f 7/10/2 9/15/2 81/138/2 79/136/2
f 24/94/2 61/96/2 105/162/2 103/160/2
f 50/118/2 27/123/2 122/179/2 120/177/2
f 152/230/2 149/227/2 150/228/2 153/231/2
f 61/96/2 62/97/2 106/163/2 105/162/2
f 57/90/2 65/100/2 110/167/2 98/155/2
f 9/15/2 12/21/2 82/139/2 81/138/2
f 5/8/2 7/10/2 79/136/2 77/134/2
f 37/232/2 36/216/2 143/217/2 154/233/2
f 63/98/2 17/101/2 109/166/2 108/165/2
f 38/188/2 37/232/2 154/233/2 129/191/2
